<?xml version="1.0" encoding="UTF-8"?>
<svg width="765px" height="351px" viewBox="0 0 765 351" version="1.1" xmlns="http://www.w3.org/2000/svg" xmlns:xlink="http://www.w3.org/1999/xlink">
    <title>Group 9</title>
    <g id="Page-1" stroke="none" stroke-width="1" fill="none" fill-rule="evenodd">
        <g id="Group-9">
            <g id="Group-8" transform="translate(83.000000, 46.000000)" stroke="#1A1A1A" stroke-width="27">
                <path d="M71.9323986,119.187953 C115.031458,76.0888936 157.351897,75.3102742 198.893717,116.852094 C240.435538,158.393915 286.417364,153.953908 336.839198,103.532075" id="Path-2-Copy-4"></path>
                <path d="M335.077502,105.529902 C378.176561,62.4308432 420.497001,61.6522238 462.038821,103.194044 C503.580641,144.735864 549.562468,140.295858 599.984301,89.8740244" id="Path-2-Copy-9"></path>
                <path d="M0,47.2555541 C43.0990591,4.15649504 85.4194987,3.37787561 126.961319,44.9196958 C168.503139,86.461516 214.484966,82.0215095 264.906799,31.5996762" id="Path-2-Copy-8"></path>
                <path d="M35.8769851,83.1325392 C78.9760442,40.0334802 121.296484,39.2548607 162.838304,80.796681 C204.380124,122.338501 250.361951,117.898495 300.783784,67.4766613" id="Path-2-Copy-5"></path>
                <path d="M299.432553,68.9744162 C342.531612,25.8753571 384.852051,25.0967377 426.393872,66.6385579 C467.935692,108.180378 513.917519,103.740372 564.339352,53.3185382" id="Path-2-Copy-4"></path>
                <path d="M263.377139,32.9190028 C306.476198,-10.1800563 348.796638,-10.9586757 390.338458,30.5831445 C431.880278,72.1249647 477.862105,67.6849581 528.283938,17.2631248" id="Path-2-Copy-5"></path>
            </g>
            <path d="M230.275196,303.599394 C240.8526,303.599394 246.705933,296.40977 247.40231,289.577745 L237.991808,289.521282 C237.333072,293.22902 234.547564,295.431078 230.463406,295.431078 C224.967672,295.431078 221.504607,291.459846 221.504607,283.799697 C221.504607,276.440684 224.892388,272.168316 230.519869,272.168316 C234.754595,272.168316 237.521282,274.633868 237.991808,278.492174 L247.40231,278.492174 C246.46126,269.269881 239.591593,264 230.275196,264 C219.998927,264 212,271.057877 212,283.799697 C212,296.485054 219.810717,303.599394 230.275196,303.599394 Z M303.726269,303.072406 L303.726269,289.878882 L308.506804,289.878882 L315.54586,303.072406 L325.709203,303.072406 L317.710276,288.392022 C321.945002,286.47228 324.391732,282.689258 324.391732,277.362913 C324.391732,269.43927 318.990104,264.526988 310.332442,264.526988 L294.409872,264.526988 L294.409872,303.072406 L303.726269,303.072406 Z M308.318594,282.53869 L303.726269,282.53869 L303.726269,272.036569 L308.318594,272.036569 C312.496857,272.036569 314.736557,273.786922 314.736557,277.362913 C314.736557,280.938904 312.496857,282.53869 308.318594,282.53869 Z M398.068653,303.072406 L398.068653,295.506362 L380.508655,295.506362 L380.508655,287.582719 L396.69472,287.582719 L396.69472,279.997854 L380.508655,279.997854 L380.508655,272.093032 L398.068653,272.093032 L398.068653,264.526988 L371.192258,264.526988 L371.192258,303.072406 L398.068653,303.072406 Z M460.565894,303.561752 C470.164607,303.561752 475.84855,299.2141 475.886192,291.892729 C475.84855,285.738261 471.689108,281.97406 464.085422,280.29899 L460.772925,279.54615 C457.272219,278.79331 455.05134,277.626407 455.126624,275.330245 C455.145445,273.222292 456.952262,271.697791 460.565894,271.697791 C464.198348,271.697791 466.193375,273.335218 466.438048,276.083085 L475.359204,276.083085 C475.28392,268.87464 469.543514,264 460.584715,264 C451.776485,264 445.433807,268.799356 445.49027,275.970159 C445.471449,281.823492 449.574428,285.117167 456.237063,286.641669 L460.264758,287.582719 C464.499484,288.561411 466.400406,289.709493 466.438048,291.873908 C466.400406,294.226534 464.198348,295.863961 460.452968,295.863961 C456.331168,295.863961 453.620944,293.944219 453.413913,290.236481 L444.492756,290.236481 C444.605682,299.251742 450.873077,303.561752 460.565894,303.561752 Z M541.940606,303.072406 L541.940606,272.093032 L553.62845,272.093032 L553.62845,264.526988 L521.049291,264.526988 L521.049291,272.093032 L532.755956,272.093032 L532.755956,303.072406 L541.940606,303.072406 Z" id="CREST" fill="#090909" fill-rule="nonzero"></path>
        </g>
    </g>
</svg>